/* XPM */
static char * squarehead_xpm[] = {
"32 32 110 2",
"  	c None",
". 	c #7E7E7E",
"+ 	c #ACACAC",
"@ 	c #A2A2A2",
"# 	c #161212",
"$ 	c #BCBCBC",
"% 	c #FCFEFC",
"& 	c #EDF9EC",
"* 	c #DEF3DE",
"= 	c #D3EED3",
"- 	c #CBE9CB",
"; 	c #C7E4C7",
"> 	c #C6E2C6",
", 	c #F7FBF7",
"' 	c #FFFFFF",
") 	c #FFFDFD",
"! 	c #FDEBEB",
"~ 	c #FADFDF",
"{ 	c #F9DDDD",
"] 	c #F0ECEC",
"^ 	c #EFFAEE",
"/ 	c #BBE9BA",
"( 	c #91DB8F",
"_ 	c #66CD64",
": 	c #3CBF39",
"< 	c #1AB417",
"[ 	c #16B312",
"} 	c #16B313",
"| 	c #EDF5ED",
"1 	c #FBD4D4",
"2 	c #F27776",
"3 	c #EA2626",
"4 	c #E91313",
"5 	c #EEE1E1",
"6 	c #E2F5E1",
"7 	c #9BDF9A",
"8 	c #70D16E",
"9 	c #47C343",
"0 	c #20B61D",
"a 	c #F49191",
"b 	c #EB2B2B",
"c 	c #D7F0D7",
"d 	c #7BD479",
"e 	c #51C64E",
"f 	c #28B925",
"g 	c #ED6A6A",
"h 	c #CEECCE",
"i 	c #5BC958",
"j 	c #31BC2E",
"k 	c #17B413",
"l 	c #EC6565",
"m 	c #C8E8C8",
"n 	c #3BBF38",
"o 	c #1AB416",
"p 	c #C4E4C4",
"q 	c #1FB61C",
"r 	c #C2E0C1",
"s 	c #C1E0C1",
"t 	c #F5FAF5",
"u 	c #E9F3E9",
"v 	c #FCFDFC",
"w 	c #FCEFEF",
"x 	c #FCEDED",
"y 	c #F0EEEE",
"z 	c #F1F1F1",
"A 	c #F5F9FE",
"B 	c #BDD8F8",
"C 	c #9AC0F3",
"D 	c #86ABEE",
"E 	c #83A4ED",
"F 	c #89A8ED",
"G 	c #FBF1D7",
"H 	c #F7E5B8",
"I 	c #F4DBA5",
"J 	c #F0D29B",
"K 	c #EFCE98",
"L 	c #F0EFEE",
"M 	c #E9F1FC",
"N 	c #74B1F1",
"O 	c #398EEB",
"P 	c #147CE7",
"Q 	c #137BE7",
"R 	c #3682E8",
"S 	c #F6E0A4",
"T 	c #EFCC63",
"U 	c #EABC33",
"V 	c #E7B315",
"W 	c #E7B213",
"X 	c #F0EEED",
"Y 	c #E1EBFB",
"Z 	c #4093EB",
"` 	c #167CE7",
" .	c #F2D486",
"..	c #EBBE38",
"+.	c #E7B316",
"@.	c #DEE6F9",
"#.	c #197EE8",
"$.	c #EEC870",
"%.	c #E8B318",
"&.	c #DDE4F9",
"*.	c #EBBF66",
"=.	c #EABE65",
"-.	c #E9EDFB",
";.	c #A0B7F0",
">.	c #A4B9F0",
",.	c #F2D7AF",
"'.	c #F0D0A0",
").	c #A09F9F",
"!.	c #D9D9D9",
"~.	c #CCCCCC",
"                                                                ",
"                                                                ",
"    . + + + + + + + + + + + + + + + + + + + + + + + + + + @ #   ",
"    $ % & * = - ; > > > > > > , ' ) ! ~ { { { { { { { { { ] #   ",
"    $ ^ / ( _ : < [ [ [ } [ } | ' 1 2 3 4 4 4 4 4 4 4 4 4 5 #   ",
"    $ 6 7 8 9 0 } [ [ } [ [ [ | ' a b 4 4 4 4 4 4 4 4 4 4 5 #   ",
"    $ c d e f } } [ } } [ [ [ | ' g 4 4 4 4 4 4 4 4 4 4 4 5 #   ",
"    $ h i j k [ [ } } [ } [ [ | ' l 4 4 4 4 4 4 4 4 4 4 4 5 #   ",
"    $ m n o } [ [ [ [ [ } [ [ | ' l 4 4 4 4 4 4 4 4 4 4 4 5 #   ",
"    $ p q } [ [ } [ [ [ [ [ [ | ' l 4 4 4 4 4 4 4 4 4 4 4 5 #   ",
"    $ r } [ [ [ [ [ [ [ } [ [ | ' l 4 4 4 4 4 4 4 4 4 4 4 5 #   ",
"    $ s [ } [ } [ [ } [ [ } } | ' l 4 4 4 4 4 4 4 4 4 4 4 5 #   ",
"    $ s [ } } } [ } } } } [ [ | ' l 4 4 4 4 4 4 4 4 4 4 4 5 #   ",
"    $ s } [ [ [ [ [ [ } } } [ | ' l 4 4 4 4 4 4 4 4 4 4 4 5 #   ",
"    $ s } [ } [ } } [ } } } [ | ' l 4 4 4 4 4 4 4 4 4 4 4 5 #   ",
"    $ t u u u u u u u u u u u v ' w x x x x x x x x x x x y #   ",
"    $ ' ' ' ' ' ' ' ' ' ' ' ' ' ' ' ' ' ' ' ' ' ' ' ' ' ' z #   ",
"    $ A B C D E E E E E E E F ' ' G H I J K K K K K K K K L #   ",
"    $ M N O P Q Q Q Q Q Q Q R ' ' S T U V W W W W W W W W X #   ",
"    $ Y Z ` Q Q Q Q Q Q Q Q R ' '  ...+.W W W W W W W W W X #   ",
"    $ @.#.Q Q Q Q Q Q Q Q Q R ' ' $.%.W W W W W W W W W W X #   ",
"    $ &.Q Q Q Q Q Q Q Q Q Q R ' ' *.W W W W W W W W W W W X #   ",
"    $ &.Q Q Q Q Q Q Q Q Q Q R ' ' =.W W W W W W W W W W W X #   ",
"    $ &.Q Q Q Q Q Q Q Q Q Q R ' ' =.W W W W W W W W W W W X #   ",
"    $ &.Q Q Q Q Q Q Q Q Q Q R ' ' =.W W W W W W W W W W W X #   ",
"    $ &.Q Q Q Q Q Q Q Q Q Q R ' ' =.W W W W W W W W W W W X #   ",
"    $ &.Q Q Q Q Q Q Q Q Q Q R ' ' =.W W W W W W W W W W W X #   ",
"    $ &.Q Q Q Q Q Q Q Q Q Q R ' ' =.W W W W W W W W W W W X #   ",
"    $ -.;.;.;.;.;.;.;.;.;.;.>.' ' ,.'.'.'.'.'.'.'.'.'.'.'.L #   ",
"    ).!.!.!.!.!.!.!.!.!.!.!.!.!.!.!.!.!.!.!.!.!.!.!.!.!.!.~.#   ",
"                                                                ",
"                                                                "};
